<?xml version="1.0" encoding="UTF-8" standalone="no"?>
<!-- Created with Inkscape (http://www.inkscape.org/) -->

<svg
   width="64"
   height="64"
   viewBox="0 0 64 64"
   version="1.1"
   id="svg1"
   xml:space="preserve"
   inkscape:version="1.3.2 (091e20ef0f, 2023-11-25)"
   sodipodi:docname="Nexus.svg"
   xmlns:inkscape="http://www.inkscape.org/namespaces/inkscape"
   xmlns:sodipodi="http://sodipodi.sourceforge.net/DTD/sodipodi-0.dtd"
   xmlns="http://www.w3.org/2000/svg"
   xmlns:svg="http://www.w3.org/2000/svg"><sodipodi:namedview
     id="namedview1"
     pagecolor="#ffffff"
     bordercolor="#000000"
     borderopacity="0.25"
     inkscape:showpageshadow="2"
     inkscape:pageopacity="0.0"
     inkscape:pagecheckerboard="0"
     inkscape:deskcolor="#d1d1d1"
     inkscape:document-units="mm"
     inkscape:zoom="6.3971067"
     inkscape:cx="12.349333"
     inkscape:cy="34.703189"
     inkscape:window-width="1920"
     inkscape:window-height="996"
     inkscape:window-x="0"
     inkscape:window-y="0"
     inkscape:window-maximized="1"
     inkscape:current-layer="layer1" /><defs
     id="defs1" /><g
     inkscape:label="Camada 1"
     inkscape:groupmode="layer"
     id="layer1"><path
       d="M 63.437387,44.043192 C 63.052501,42.78921 62.493798,41.584889 61.835768,40.4054 c -0.384885,-0.707689 -0.85668,-1.402968 -1.365723,-2.147905 0.856681,-3.824022 0.943589,-7.809451 0.235899,-11.683136 -0.347641,-1.837518 -0.856681,-3.637787 -1.564374,-5.388396 0.347637,-0.943589 0.65803,-1.874763 0.943589,-2.818355 0.347641,-1.253982 0.546292,-2.619701 0.620785,-4.059918 0.03725,-0.670448 0.03725,-1.328478 0,-1.94926 C 60.66869,10.558161 60.122407,9.2669309 59.414714,8.3730024 59.216064,8.0626135 58.94292,7.7894695 58.669776,7.5535704 L 58.123485,7.0072824 C 57.465456,6.3864978 56.757763,5.7533018 56.050071,5.1697648 54.448451,3.8412904 52.921325,2.7859592 51.443861,1.9292755 50.773416,1.5443929 49.842239,1.0353504 48.749664,0.67529423 48.128879,0.47664337 47.582592,0.36490538 46.98664,0.29041225 46.750741,0.2531585 46.477597,0.2531585 46.241702,0.2531585 c -1.129825,0 -1.998923,0.273144 -2.383809,0.43454932 h -0.03725 C 42.057614,1.2339958 40.381503,2.127925 38.543985,3.3819063 37.997693,3.2701643 37.451406,3.1460072 36.905118,3.0715134 34.595806,2.6866273 32.174752,2.5624703 29.790946,2.7611211 27.518879,2.9225264 25.259231,3.3819063 23.148569,4.0895956 22.25464,4.3999885 21.385545,4.7103808 20.566109,5.0704329 19.312128,4.5986387 17.90916,4.1765077 16.344786,3.9406086 15.326704,3.7792067 14.271373,3.7047095 13.302951,3.7047095 h -0.03725 c -0.509039,0 -1.018082,0.037254 -1.489876,0.074497 C 10.28594,3.8164605 9.1933649,4.3254947 8.4111784,4.909031 8.0635372,5.1449267 7.7531483,5.4180741 7.467586,5.728463 L 6.921298,6.2747544 C 6.3005168,6.8955355 5.7045615,7.6032295 5.1210287,8.3109187 3.8297991,9.9125413 2.774468,11.402418 1.9177877,12.879884 c -0.3848861,0.670445 -0.8939286,1.564373 -1.2539813,2.656949 -0.19865018,0.583536 -0.31039227,1.129828 -0.38488541,1.676116 -0.23589914,1.489876 0.16140122,2.656949 0.31039228,3.128744 v 0.03725 c 0.74493813,2.272064 1.91201133,4.221323 2.85559973,5.587046 -0.1117421,0.471795 -0.1986502,0.980838 -0.273144,1.489881 -0.3476371,2.383805 -0.4345493,4.80486 -0.1986502,7.188665 0.2358992,2.272063 0.7076933,4.531716 1.4029683,6.567884 0.1614053,0.384886 0.273144,0.782187 0.4345493,1.129824 -0.037254,0.111742 -0.074493,0.235895 -0.1117421,0.347638 -0.5090431,1.365722 -1.1670725,3.165992 -1.4402165,5.20216 -0.1614019,0.980837 -0.1986509,1.998922 -0.1986509,2.930096 0,0.471795 0.037254,0.893928 0.074494,1.328475 0.037254,1.328476 0.4717983,2.34656 0.9808373,3.128746 0.273144,0.434548 0.6207853,0.819434 1.0180856,1.167072 l 0.546288,0.546291 c 0.6580301,0.62078 1.3657234,1.25398 2.0734167,1.837516 1.6016185,1.328475 3.1287435,2.383807 4.6062085,3.240486 0.65803,0.384886 1.601619,0.893925 2.694198,1.253982 0.620781,0.19865 1.167069,0.310392 1.76302,0.384887 0.2359,0.03725 0.509044,0.03725 0.744943,0.03725 1.129824,0 1.998919,-0.310393 2.383805,-0.273145 h 0.03725 c 1.874763,-0.620784 3.675032,-1.564373 5.698785,-3.00459 0.273144,0.03725 0.583536,0.111742 0.85668,0.161403 2.346561,0.43455 4.767615,0.620784 7.151421,0.471797 2.309311,-0.111741 4.606209,-0.546292 6.803778,-1.216736 0.744943,-0.235896 1.52713,-0.509042 2.272068,-0.819431 1.402968,0.546287 2.967342,1.092575 4.730366,1.365719 1.092576,0.198651 2.147906,0.273147 3.203239,0.273147 h 0.03725 c 0.509042,0 1.018084,-0.03725 1.489879,-0.0745 1.489879,-0.07449 2.582457,-0.546287 3.364644,-1.129824 0.347638,-0.273144 0.670445,-0.546287 0.94359,-0.85668 l 0.471794,-0.471795 c 1.253982,-1.328474 2.458301,-2.768692 3.513631,-4.258569 0.980837,-1.365723 2.073417,-3.004591 2.768692,-5.003511 0.19865,-0.583536 0.347641,-1.092576 0.434549,-1.638864 0.223481,-1.589204 -0.136572,-2.756277 -0.285558,-3.228071 z M 54.386373,39.58597 c -1.663698,-1.713362 -4.49447,-3.824023 -9.808372,-6.145751 l 1.440216,-2.731446 -11.062351,2.967341 3.997843,10.230506 1.601619,-3.041841 c 1.365723,0.620787 2.38381,1.253983 3.401892,1.998924 1.564373,1.092577 3.00459,2.309313 4.221323,3.600543 2.954927,2.992171 4.506885,6.058838 4.109583,8.591633 l -0.04966,0.02483 -0.19865,0.03725 c -1.365722,0.161405 -2.855603,0.07449 -4.370313,-0.273144 h -0.03725 C 45.993386,54.410267 44.366934,53.801899 42.728066,53.044544 39.51241,54.68341 35.862209,55.627 32.000938,55.627 c -2.656949,0 -5.20216,-0.446963 -7.585966,-1.253982 1.676112,-1.688529 3.71228,-4.506883 5.947099,-9.609717 l 2.73144,1.440214 -2.967342,-11.062353 -10.280168,3.923349 3.091499,1.676116 c -0.620781,1.365719 -1.253982,2.383804 -1.99892,3.401887 -1.092579,1.564374 -2.309311,3.00459 -3.600542,4.221324 -2.992172,2.954927 -6.05884,4.506884 -8.5916326,4.109583 l -0.049663,-0.04966 -0.037254,-0.198649 C 8.4980865,50.859389 8.5849954,49.36951 8.9326365,47.854802 v -0.03725 C 9.3920164,46.079354 10.050046,44.353575 10.869477,42.615384 9.2554403,39.424558 8.3491002,35.811605 8.3491002,31.987579 c 0,-2.470713 0.3848861,-4.854519 1.092576,-7.089338 1.6512808,1.725776 4.4944698,3.873686 9.8952818,6.232658 L 17.896734,33.862344 28.959085,30.895002 25.010906,20.54034 23.359624,23.669088 C 21.9939,23.048307 20.975818,22.415107 19.957733,21.670168 18.393359,20.577589 16.953142,19.360853 15.73641,18.069626 12.806313,15.08987 11.241942,12.048031 11.626828,9.5276524 l 0.08691,-0.086908 0.19865,-0.037254 c 1.365723,-0.1614019 2.8556,-0.074493 4.370311,0.273144 h 0.03725 c 1.452632,0.3848866 2.905264,0.9063446 4.357895,1.5519596 3.377058,-1.8375186 7.225914,-2.880434 11.32308,-2.880434 2.694198,0 5.276654,0.4593792 7.685294,1.2788146 -1.738191,1.6388644 -3.898516,4.4820524 -6.282322,9.9325274 l -2.731445,-1.440219 2.967342,11.06235 10.317413,-3.910934 -3.128747,-1.676112 c 0.620784,-1.365723 1.253981,-2.383805 1.998923,-3.401892 1.092576,-1.564373 2.309312,-3.00459 3.600542,-4.221323 2.992172,-2.954927 6.058839,-4.506885 8.591634,-4.109585 l 0.04966,0.04966 0.03725,0.19865 c 0.161404,1.365723 0.07449,2.855604 -0.273144,4.370314 v 0.03725 c -0.422133,1.589203 -1.018084,3.190826 -1.738192,4.78003 1.638866,3.215655 2.557626,6.841027 2.557626,10.702298 -0.01242,2.644535 -0.45938,5.202161 -1.266398,7.585965 z"
       id="path1"
       style="fill-opacity:1;stroke-width:0.124156" /></g></svg>
