<?xml version="1.0" encoding="UTF-8" standalone="no"?>
<!-- Created with Inkscape (http://www.inkscape.org/) -->

<svg
   width="64"
   height="64"
   viewBox="0 0 64 64"
   version="1.1"
   id="svg1"
   xml:space="preserve"
   inkscape:version="1.3.2 (091e20ef0f, 2023-11-25)"
   sodipodi:docname="vortex.svg"
   xmlns:inkscape="http://www.inkscape.org/namespaces/inkscape"
   xmlns:sodipodi="http://sodipodi.sourceforge.net/DTD/sodipodi-0.dtd"
   xmlns="http://www.w3.org/2000/svg"
   xmlns:svg="http://www.w3.org/2000/svg"><sodipodi:namedview
     id="namedview1"
     pagecolor="#ffffff"
     bordercolor="#000000"
     borderopacity="0.25"
     inkscape:showpageshadow="2"
     inkscape:pageopacity="0.0"
     inkscape:pagecheckerboard="0"
     inkscape:deskcolor="#d1d1d1"
     inkscape:document-units="mm"
     inkscape:zoom="12.794213"
     inkscape:cx="32.59286"
     inkscape:cy="32.123898"
     inkscape:window-width="1920"
     inkscape:window-height="996"
     inkscape:window-x="0"
     inkscape:window-y="0"
     inkscape:window-maximized="1"
     inkscape:current-layer="layer1" /><defs
     id="defs1" /><g
     inkscape:label="Camada 1"
     inkscape:groupmode="layer"
     id="layer1"><path
       id="Fill-21"
       style="fill:#000000;fill-rule:evenodd;stroke:none;stroke-width:1;display:inline;fill-opacity:1"
       d="M 337.49117 8.0809403 C 306.24624 7.9664074 268.2527 11.341437 222.36045 20.004987 C 38.794209 54.659187 6.455763 125.66156 10.39026 145.64161 C 14.335886 165.62165 56.537063 230.60031 265.81665 187.05741 C 475.05452 144.68554 470.78414 82.149299 467.13624 55.212761 C 464.17285 40.223544 431.22598 8.4245389 337.49117 8.0809403 z M 341.44174 37.15304 C 405.40422 36.160529 427.33839 51.274249 428.91851 59.279093 C 431.21688 70.914138 431.17371 111.21418 254.12414 147.49389 C 77.077371 183.77917 45.040064 147.38412 42.74726 135.74349 C 40.446109 124.09729 71.008572 80.416434 226.13736 50.68336 C 274.61163 41.394388 312.36788 37.604181 341.44174 37.15304 z M 135.14415 104.92041 C 127.93399 116.55345 114.39759 129.64941 102.90292 138.43508 C 117.53601 139.03453 136.42382 141.95714 149.31119 147.29129 L 134.31931 128.58038 L 134.31931 128.5225 C 190.82669 115.28247 265.25204 114.58812 317.2174 123.38531 C 329.47143 119.81032 340.04477 116.26052 349.08239 112.76365 C 324.288 107.69616 295.66883 105.17195 267.886 104.93488 C 215.62514 104.49884 160.99913 119.14526 134.36272 127.4227 L 135.14415 104.92041 z M 414.62123 145.27983 C 403.70945 150.89159 391.13822 156.46253 376.72187 161.9214 C 358.82877 197.84326 231.36204 220.50515 164.56355 219.93536 C 100.69344 219.38502 56.494644 200.39961 56.494644 200.39961 C 56.494644 200.39961 78.309724 243.10791 198.06376 244.13076 C 317.82893 245.15916 419.35814 199.08789 419.70053 160.99526 C 419.73673 155.264 417.87807 150.05219 414.62123 145.27983 z M 323.07813 234.05899 C 323.07813 234.05899 294.69343 265.54774 213.07011 265.54774 C 131.44679 265.54774 96.85407 237.57543 96.85407 237.57543 C 96.85407 237.57543 119.04363 286.53059 219.29261 286.53059 C 347.04444 286.53059 323.07813 234.05899 323.07813 234.05899 z M 125.10133 278.45581 C 125.10133 290.05667 152.44433 324.83608 201.8262 324.86408 C 251.11398 324.89208 258.2303 300.78398 258.2773 300.76998 C 258.2773 300.76998 252.99747 307.00695 214.18437 307.00695 C 157.73728 307.00695 125.10133 278.45581 125.10133 278.45581 z M 137.41609 314.77784 C 137.41609 314.77784 133.83908 331.49068 156.25724 343.80653 C 181.80801 357.8396 203.79425 339.40737 203.79425 339.40737 C 156.25313 343.80805 137.41609 314.77784 137.41609 314.77784 z M 131.56983 343.0251 L 121.06394 363.19758 L 161.42336 358.79841 C 158.10915 358.76791 152.0148 358.25377 145.33169 354.89126 C 137.91299 351.16037 133.56328 345.83089 131.56983 343.0251 z "
       transform="matrix(0.13496886,0,0,0.13496886,0.0038885,6.9327622)" /></g></svg>
